<mxfile host="Electron" modified="2023-11-11T05:14:44.400Z" agent="Mozilla/5.0 (Windows NT 10.0; Win64; x64) AppleWebKit/537.36 (KHTML, like Gecko) draw.io/22.0.3 Chrome/114.0.5735.289 Electron/25.8.4 Safari/537.36" etag="BwBaz7DUlcs1p5D93TuD" version="22.0.3" type="device">
  <diagram name="Trang-1" id="IADCNZzTQUYP1Xr9ylkK">
    <mxGraphModel dx="825" dy="541" grid="1" gridSize="10" guides="1" tooltips="1" connect="1" arrows="1" fold="1" page="1" pageScale="1" pageWidth="1169" pageHeight="1654" math="0" shadow="0">
      <root>
        <mxCell id="0" />
        <mxCell id="1" parent="0" />
        <mxCell id="dFG9ZPL8Gpk0XD4977Ls-3" value="" style="edgeStyle=orthogonalEdgeStyle;rounded=0;orthogonalLoop=1;jettySize=auto;html=1;" edge="1" parent="1" source="dFG9ZPL8Gpk0XD4977Ls-1" target="dFG9ZPL8Gpk0XD4977Ls-2">
          <mxGeometry relative="1" as="geometry" />
        </mxCell>
        <mxCell id="dFG9ZPL8Gpk0XD4977Ls-1" value="start&lt;br&gt;" style="ellipse;whiteSpace=wrap;html=1;" vertex="1" parent="1">
          <mxGeometry x="380" y="90" width="120" height="80" as="geometry" />
        </mxCell>
        <mxCell id="dFG9ZPL8Gpk0XD4977Ls-7" value="" style="edgeStyle=orthogonalEdgeStyle;rounded=0;orthogonalLoop=1;jettySize=auto;html=1;" edge="1" parent="1" source="dFG9ZPL8Gpk0XD4977Ls-2" target="dFG9ZPL8Gpk0XD4977Ls-6">
          <mxGeometry relative="1" as="geometry" />
        </mxCell>
        <mxCell id="dFG9ZPL8Gpk0XD4977Ls-2" value="tong doanh thu =a" style="shape=parallelogram;perimeter=parallelogramPerimeter;whiteSpace=wrap;html=1;fixedSize=1;" vertex="1" parent="1">
          <mxGeometry x="380" y="220" width="120" height="60" as="geometry" />
        </mxCell>
        <mxCell id="dFG9ZPL8Gpk0XD4977Ls-9" value="" style="edgeStyle=orthogonalEdgeStyle;rounded=0;orthogonalLoop=1;jettySize=auto;html=1;" edge="1" parent="1" source="dFG9ZPL8Gpk0XD4977Ls-6" target="dFG9ZPL8Gpk0XD4977Ls-8">
          <mxGeometry relative="1" as="geometry" />
        </mxCell>
        <mxCell id="dFG9ZPL8Gpk0XD4977Ls-11" value="" style="edgeStyle=orthogonalEdgeStyle;rounded=0;orthogonalLoop=1;jettySize=auto;html=1;" edge="1" parent="1" source="dFG9ZPL8Gpk0XD4977Ls-6" target="dFG9ZPL8Gpk0XD4977Ls-10">
          <mxGeometry relative="1" as="geometry" />
        </mxCell>
        <mxCell id="dFG9ZPL8Gpk0XD4977Ls-6" value="a&amp;lt;=100" style="rhombus;whiteSpace=wrap;html=1;" vertex="1" parent="1">
          <mxGeometry x="400" y="350" width="80" height="80" as="geometry" />
        </mxCell>
        <mxCell id="dFG9ZPL8Gpk0XD4977Ls-21" style="edgeStyle=orthogonalEdgeStyle;rounded=0;orthogonalLoop=1;jettySize=auto;html=1;entryX=1;entryY=0.5;entryDx=0;entryDy=0;" edge="1" parent="1" source="dFG9ZPL8Gpk0XD4977Ls-8" target="dFG9ZPL8Gpk0XD4977Ls-19">
          <mxGeometry relative="1" as="geometry">
            <Array as="points">
              <mxPoint x="800" y="390" />
              <mxPoint x="800" y="880" />
            </Array>
          </mxGeometry>
        </mxCell>
        <mxCell id="dFG9ZPL8Gpk0XD4977Ls-8" value="tien hoa hong = 0.05a" style="shape=parallelogram;perimeter=parallelogramPerimeter;whiteSpace=wrap;html=1;fixedSize=1;" vertex="1" parent="1">
          <mxGeometry x="560" y="360" width="150" height="60" as="geometry" />
        </mxCell>
        <mxCell id="dFG9ZPL8Gpk0XD4977Ls-13" value="" style="edgeStyle=orthogonalEdgeStyle;rounded=0;orthogonalLoop=1;jettySize=auto;html=1;" edge="1" parent="1" source="dFG9ZPL8Gpk0XD4977Ls-10" target="dFG9ZPL8Gpk0XD4977Ls-12">
          <mxGeometry relative="1" as="geometry" />
        </mxCell>
        <mxCell id="dFG9ZPL8Gpk0XD4977Ls-15" value="" style="edgeStyle=orthogonalEdgeStyle;rounded=0;orthogonalLoop=1;jettySize=auto;html=1;" edge="1" parent="1" source="dFG9ZPL8Gpk0XD4977Ls-10" target="dFG9ZPL8Gpk0XD4977Ls-14">
          <mxGeometry relative="1" as="geometry" />
        </mxCell>
        <mxCell id="dFG9ZPL8Gpk0XD4977Ls-10" value="100&amp;lt;a&amp;lt;=300" style="rhombus;whiteSpace=wrap;html=1;" vertex="1" parent="1">
          <mxGeometry x="400" y="510" width="80" height="80" as="geometry" />
        </mxCell>
        <mxCell id="dFG9ZPL8Gpk0XD4977Ls-22" style="edgeStyle=orthogonalEdgeStyle;rounded=0;orthogonalLoop=1;jettySize=auto;html=1;exitX=1;exitY=0.5;exitDx=0;exitDy=0;entryX=1;entryY=0.5;entryDx=0;entryDy=0;" edge="1" parent="1" source="dFG9ZPL8Gpk0XD4977Ls-12" target="dFG9ZPL8Gpk0XD4977Ls-19">
          <mxGeometry relative="1" as="geometry">
            <Array as="points">
              <mxPoint x="800" y="550" />
              <mxPoint x="800" y="880" />
            </Array>
          </mxGeometry>
        </mxCell>
        <mxCell id="dFG9ZPL8Gpk0XD4977Ls-12" value="tien hoa hong = 0.1a" style="shape=parallelogram;perimeter=parallelogramPerimeter;whiteSpace=wrap;html=1;fixedSize=1;" vertex="1" parent="1">
          <mxGeometry x="540" y="520" width="170" height="60" as="geometry" />
        </mxCell>
        <mxCell id="dFG9ZPL8Gpk0XD4977Ls-17" value="" style="edgeStyle=orthogonalEdgeStyle;rounded=0;orthogonalLoop=1;jettySize=auto;html=1;" edge="1" parent="1" source="dFG9ZPL8Gpk0XD4977Ls-14" target="dFG9ZPL8Gpk0XD4977Ls-16">
          <mxGeometry relative="1" as="geometry" />
        </mxCell>
        <mxCell id="dFG9ZPL8Gpk0XD4977Ls-20" value="" style="edgeStyle=orthogonalEdgeStyle;rounded=0;orthogonalLoop=1;jettySize=auto;html=1;" edge="1" parent="1" source="dFG9ZPL8Gpk0XD4977Ls-14" target="dFG9ZPL8Gpk0XD4977Ls-19">
          <mxGeometry relative="1" as="geometry" />
        </mxCell>
        <mxCell id="dFG9ZPL8Gpk0XD4977Ls-14" value="a&amp;gt;300" style="rhombus;whiteSpace=wrap;html=1;" vertex="1" parent="1">
          <mxGeometry x="400" y="670" width="80" height="80" as="geometry" />
        </mxCell>
        <mxCell id="dFG9ZPL8Gpk0XD4977Ls-23" style="edgeStyle=orthogonalEdgeStyle;rounded=0;orthogonalLoop=1;jettySize=auto;html=1;" edge="1" parent="1" source="dFG9ZPL8Gpk0XD4977Ls-16">
          <mxGeometry relative="1" as="geometry">
            <mxPoint x="500" y="880" as="targetPoint" />
            <Array as="points">
              <mxPoint x="700" y="880" />
            </Array>
          </mxGeometry>
        </mxCell>
        <mxCell id="dFG9ZPL8Gpk0XD4977Ls-16" value="tien hoa hong = 0.2a" style="shape=parallelogram;perimeter=parallelogramPerimeter;whiteSpace=wrap;html=1;fixedSize=1;" vertex="1" parent="1">
          <mxGeometry x="540" y="680" width="180" height="60" as="geometry" />
        </mxCell>
        <mxCell id="dFG9ZPL8Gpk0XD4977Ls-19" value="end" style="ellipse;whiteSpace=wrap;html=1;" vertex="1" parent="1">
          <mxGeometry x="380" y="840" width="120" height="80" as="geometry" />
        </mxCell>
      </root>
    </mxGraphModel>
  </diagram>
</mxfile>
